<svg width="36" height="23" viewBox="0 0 36 23" fill="none" xmlns="http://www.w3.org/2000/svg">
<rect width="36" height="23" rx="5" fill="#26365F"/>
<path d="M20.2321 4.4216L14.5392 5.04616L12.009 13.1654L15.488 18.7864L20.2321 18.4741L24.6599 14.7268L20.2321 4.4216Z" fill="#FF5C00"/>
<path fill-rule="evenodd" clip-rule="evenodd" d="M18.3346 4.57107C15.8767 5.97492 14.223 8.59883 14.223 11.6041C14.223 14.6094 15.8767 17.2333 18.3346 18.6371C17.1251 19.328 15.7208 19.7233 14.2231 19.7233C9.68159 19.7233 6 16.0882 6 11.6041C6 7.11997 9.68159 3.48486 14.2231 3.48486C15.7208 3.48486 17.1251 3.88024 18.3346 4.57107Z" fill="#FC0101"/>
<path fill-rule="evenodd" clip-rule="evenodd" d="M18.0184 4.57107C20.4763 5.97493 22.13 8.59884 22.13 11.6041C22.13 14.6094 20.4763 17.2333 18.0184 18.6371C19.2279 19.3279 20.6322 19.7233 22.13 19.7233C26.6714 19.7233 30.353 16.0882 30.353 11.6041C30.353 7.11997 26.6714 3.48486 22.13 3.48486C20.6322 3.48486 19.2279 3.88025 18.0184 4.57107Z" fill="#FCD401"/>
</svg>
