<svg width="37" height="24" viewBox="0 0 37 24" fill="none" xmlns="http://www.w3.org/2000/svg">
<rect x="0.928223" width="36.0074" height="23.2989" rx="5" fill="#2666AC"/>
<path d="M28.6648 7.46362H30.1107L32.3818 16.5917H30.7188L30.2348 14.6494H26.6295L25.5808 16.5917H23.7378L28.6648 7.46362ZM29.819 13.036L29.0868 10.0388L27.4796 13.036H29.819Z" fill="white"/>
<path d="M23.5826 8.7357L22.3353 9.84024C21.8224 9.17834 21.3446 8.84739 20.9019 8.84739C20.6827 8.84739 20.5006 8.91358 20.3558 9.04596C20.211 9.17421 20.1387 9.32934 20.1387 9.51136C20.1387 9.68097 20.2048 9.8692 20.3372 10.076C20.4696 10.2829 20.8709 10.74 21.5411 11.4474C21.8968 11.8239 22.1306 12.0907 22.2423 12.2479C22.5112 12.612 22.7035 12.9532 22.8194 13.2718C22.9393 13.5862 22.9993 13.9068 22.9993 14.2336C22.9993 14.9658 22.7387 15.5802 22.2174 16.0766C21.6962 16.573 21.0281 16.8212 20.2131 16.8212C18.972 16.8212 17.9606 16.2317 17.1787 15.0527L18.4942 13.9916C19.0238 14.7983 19.5967 15.2016 20.2131 15.2016C20.5068 15.2016 20.753 15.1065 20.9515 14.9162C21.1543 14.7259 21.2556 14.4963 21.2556 14.2274C21.2556 14.0164 21.1936 13.8013 21.0694 13.5821C20.9495 13.3628 20.602 12.9491 20.027 12.341C19.4188 11.6998 19.0196 11.2158 18.8293 10.8889C18.5728 10.4463 18.4446 10.0119 18.4446 9.58583C18.4446 9.02321 18.6287 8.51851 18.9969 8.07173C19.4602 7.51325 20.0849 7.23401 20.8709 7.23401C21.9506 7.23401 22.8545 7.73457 23.5826 8.7357Z" fill="white"/>
<path d="M15.2982 7.46362H16.9737L15.714 16.5917H14.0696L15.2982 7.46362Z" fill="white"/>
<path d="M5.46289 7.46375H7.13833L8.77033 14.0538L12.3012 7.46375H14.1441L9.26055 16.5918H7.72783L5.46289 7.46375Z" fill="white"/>
<path d="M3.04639 7.4133H7.10605L7.63557 9.53138L3.04639 7.4133Z" fill="#EEA84D"/>
</svg>
