<svg width="36" height="24" viewBox="0 0 36 24" fill="none" xmlns="http://www.w3.org/2000/svg">
<rect x="0.0957031" width="35.7371" height="23.124" rx="5" fill="#2666AC"/>
<path fill-rule="evenodd" clip-rule="evenodd" d="M31.0186 17.3527C31.2241 17.75 31.4943 18.0927 31.8506 18.3292L31.8529 18.3308C32.221 18.573 32.6398 18.6833 33.0819 18.6833C33.641 18.6833 34.1583 18.5143 34.5668 18.1287C34.9717 17.7464 35.1714 17.2514 35.1714 16.6984C35.1714 16.4164 35.1166 16.1412 34.9983 15.883C34.8815 15.6216 34.7003 15.3856 34.4902 15.1727C34.4453 15.1268 34.3757 15.0628 34.2852 14.9832L34.8547 14.4797C35.1418 14.2259 35.1718 13.7886 34.9221 13.498C34.6557 13.188 34.3647 12.9217 34.0451 12.7584C33.7443 12.6036 33.4203 12.5242 33.0819 12.5242C32.5652 12.5242 32.0943 12.6966 31.7152 13.053C31.3425 13.4032 31.1371 13.8543 31.1371 14.3704C31.1371 14.7502 31.2642 15.1 31.467 15.41L31.4686 15.4125C31.583 15.5857 31.7535 15.7747 31.9651 15.9762L31.2629 16.4005C31.2293 16.4208 31.1979 16.4436 31.1689 16.4684C31.1817 16.5424 31.1881 16.6191 31.1881 16.6984C31.1881 16.9171 31.1436 17.1133 31.0548 17.2872C31.0434 17.3094 31.0314 17.3313 31.0186 17.3527ZM33.008 15.9563C33.2666 16.1678 33.434 16.3248 33.5099 16.4274C33.5859 16.5301 33.6239 16.6327 33.6239 16.7354C33.6239 16.8483 33.5736 16.9479 33.473 17.0341C33.3724 17.1203 33.2482 17.1634 33.1004 17.1634C32.8618 17.1634 32.6465 17.0215 32.4545 16.7376C32.4185 16.6844 32.3834 16.6261 32.349 16.5629L31.6253 17.0002C31.6914 17.1315 31.7625 17.2492 31.8388 17.3534C31.899 17.4357 31.9625 17.5096 32.0291 17.575C32.0956 17.6402 32.1653 17.6971 32.2381 17.7454C32.4783 17.9035 32.7596 17.9825 33.0819 17.9825C33.4945 17.9825 33.8291 17.8614 34.0858 17.6192C34.3424 17.3769 34.4707 17.07 34.4707 16.6984C34.4707 16.5075 34.4337 16.332 34.3598 16.1719C34.288 16.0097 34.1648 15.8403 33.9903 15.6638C33.9205 15.5919 33.7214 15.4184 33.3929 15.1433C33.0418 14.8457 32.8314 14.6517 32.7616 14.5613C32.7103 14.4936 32.6846 14.4217 32.6846 14.3458C32.6846 14.2698 32.7206 14.2021 32.7924 14.1426C32.8643 14.081 32.9567 14.0502 33.0696 14.0502C33.2165 14.0502 33.3617 14.1127 33.5053 14.2379C33.5885 14.3103 33.6711 14.4038 33.7532 14.5182L34.3906 13.9547C34.3632 13.9229 34.3361 13.8922 34.3092 13.8626C34.1585 13.6971 34.0145 13.5673 33.8774 13.4731C33.8258 13.4377 33.7752 13.4073 33.7255 13.3819C33.5222 13.2772 33.3077 13.2249 33.0819 13.2249C32.7308 13.2249 32.4352 13.3378 32.195 13.5636C31.9569 13.7874 31.8378 14.0563 31.8378 14.3704C31.8378 14.588 31.9097 14.8067 32.0534 15.0263C32.1971 15.2439 32.5153 15.5539 33.008 15.9563Z" fill="white"/>
<path fill-rule="evenodd" clip-rule="evenodd" d="M27.927 17.6765C28.1017 17.9359 28.3127 18.1598 28.5679 18.3292L28.5702 18.3308C28.9383 18.573 29.3571 18.6833 29.7992 18.6833C30.3583 18.6833 30.8757 18.5143 31.2841 18.1287C31.535 17.8918 31.7071 17.6117 31.8018 17.3013C31.7394 17.2104 31.6805 17.1101 31.6253 17.0002L31.884 16.8438C31.8872 16.7959 31.8887 16.7474 31.8887 16.6984C31.8887 16.4164 31.8339 16.1412 31.7156 15.883C31.5988 15.6216 31.4177 15.3856 31.2075 15.1727C31.1627 15.1268 31.0931 15.0628 31.0025 14.9832L31.5721 14.4797C31.8591 14.2259 31.8891 13.7886 31.6394 13.498C31.373 13.188 31.0821 12.9217 30.7624 12.7584C30.4616 12.6036 30.1376 12.5242 29.7992 12.5242C29.2826 12.5242 28.8116 12.6966 28.4325 13.053C28.1891 13.2817 28.017 13.5535 27.927 13.8584V14.1826H27.8637C27.8575 14.2442 27.8544 14.3068 27.8544 14.3704C27.8544 14.7502 27.9816 15.1 28.1843 15.41L28.186 15.4125C28.3004 15.5857 28.4709 15.7747 28.6824 15.9762L27.9803 16.4005C27.7572 16.5353 27.6348 16.7762 27.6422 17.0218H27.927V17.6765ZM29.7253 15.9563C29.984 16.1678 30.1513 16.3248 30.2273 16.4274C30.3032 16.5301 30.3412 16.6327 30.3412 16.7354C30.3412 16.8483 30.2909 16.9479 30.1903 17.0341C30.0897 17.1203 29.9655 17.1634 29.8177 17.1634C29.5791 17.1634 29.3639 17.0215 29.1719 16.7376C29.1359 16.6844 29.1007 16.6261 29.0663 16.5629L28.3427 17.0002C28.4087 17.1315 28.4799 17.2492 28.5561 17.3534C28.6164 17.4357 28.6798 17.5096 28.7464 17.575C28.8129 17.6402 28.8826 17.6971 28.9555 17.7454C29.1957 17.9035 29.4769 17.9825 29.7992 17.9825C30.2119 17.9825 30.5465 17.8614 30.8031 17.6192C31.0597 17.3769 31.188 17.07 31.188 16.6984C31.188 16.5075 31.1511 16.332 31.0772 16.1719C31.0053 16.0097 30.8821 15.8403 30.7076 15.6638C30.6378 15.5919 30.4387 15.4184 30.1102 15.1433C29.7592 14.8457 29.5488 14.6517 29.479 14.5613C29.4276 14.4936 29.402 14.4217 29.402 14.3458C29.402 14.2698 29.4379 14.2021 29.5098 14.1426C29.5816 14.081 29.674 14.0502 29.7869 14.0502C29.9338 14.0502 30.079 14.1127 30.2226 14.2379C30.3058 14.3103 30.3884 14.4038 30.4705 14.5182L31.108 13.9547C31.0806 13.9229 31.0534 13.8922 31.0265 13.8626C30.8758 13.6971 30.7319 13.5673 30.5947 13.4731C30.5431 13.4377 30.4925 13.4073 30.4428 13.3819C30.2396 13.2772 30.025 13.2249 29.7992 13.2249C29.4482 13.2249 29.1526 13.3378 28.9124 13.5636C28.6742 13.7874 28.5552 14.0563 28.5552 14.3704C28.5552 14.588 28.627 14.8067 28.7707 15.0263C28.9144 15.2439 29.2326 15.5539 29.7253 15.9563Z" fill="white"/>
<path fill-rule="evenodd" clip-rule="evenodd" d="M24.7537 17.8685C24.7537 18.2555 25.0674 18.5693 25.4544 18.5693H27.9271C28.3141 18.5693 28.6279 18.2555 28.6279 17.8685V17.4454C28.5285 17.3254 28.4372 17.1842 28.3538 17.0217C28.3501 17.0146 28.3465 17.0074 28.3428 17.0002L28.6046 16.842C28.5583 16.667 28.446 16.5189 28.2961 16.4259C28.4952 16.3023 28.6279 16.0816 28.6279 15.83V15.0017C28.6279 14.8488 28.5789 14.7073 28.4958 14.5921C28.5209 14.5572 28.543 14.5199 28.5615 14.4807C28.5574 14.4439 28.5553 14.4071 28.5553 14.3704C28.5553 14.3059 28.5603 14.2432 28.5704 14.1825C28.5824 14.1101 28.6015 14.0403 28.6279 13.9733V13.3388C28.6279 12.9518 28.3141 12.6381 27.9271 12.6381H25.4544C25.0674 12.6381 24.7537 12.9518 24.7537 13.3388V17.8653L24.7554 17.8685H24.7537ZM27.9271 14.1825V13.3388H25.4544V17.8685H27.9271V17.0217H26.3105V15.83H27.9271V15.0017H26.3105V14.1825H27.9271Z" fill="white"/>
<path fill-rule="evenodd" clip-rule="evenodd" d="M22.7659 13.3388H21.8514V17.8685H22.7136V15.9501H22.7937L23.8129 17.8685H24.7552L23.6836 15.8546C23.8497 15.7953 23.9914 15.7199 24.1088 15.6284C24.1946 15.5615 24.2674 15.486 24.3272 15.402C24.4709 15.2008 24.5427 14.9514 24.5427 14.6537C24.5427 14.3704 24.4781 14.1251 24.3487 13.9177C24.2194 13.7104 24.048 13.5626 23.8345 13.4743C23.623 13.384 23.2668 13.3388 22.7659 13.3388ZM24.8982 15.8081C24.8979 15.8085 24.8976 15.8089 24.8974 15.8093C24.815 15.9249 24.7208 16.0272 24.6171 16.1173L25.3738 17.5394C25.4207 17.6275 25.4475 17.7231 25.4542 17.8196V17.8685H25.4559C25.4559 17.9936 25.4225 18.1185 25.3559 18.2294C25.2292 18.4403 25.0012 18.5693 24.7552 18.5693H23.8129C23.5964 18.5693 23.3947 18.4695 23.2633 18.3032C23.1349 18.4653 22.9364 18.5693 22.7136 18.5693H21.8514C21.4644 18.5693 21.1506 18.2555 21.1506 17.8685V13.3388C21.1506 12.9518 21.4644 12.6381 21.8514 12.6381H22.7659C23.2741 12.6381 23.7536 12.679 24.1058 12.8282C24.4608 12.9759 24.742 13.2241 24.9433 13.5469C25.1525 13.8822 25.2435 14.2605 25.2435 14.6537C25.2435 15.0665 25.1423 15.4658 24.8982 15.8081ZM23.6312 14.3889C23.5799 14.315 23.5111 14.2626 23.4249 14.2318C23.4215 14.2305 23.418 14.2292 23.4143 14.228C23.326 14.1977 23.1715 14.1825 22.9507 14.1825H22.7136V15.1094H22.9846C23.1648 15.1094 23.3081 15.094 23.4143 15.0631C23.4702 15.0469 23.5158 15.0264 23.5512 15.0017C23.6559 14.9298 23.7082 14.8107 23.7082 14.6444C23.7082 14.5459 23.6826 14.4607 23.6312 14.3889Z" fill="white"/>
<path fill-rule="evenodd" clip-rule="evenodd" d="M17.554 17.8685C17.554 18.2555 17.8677 18.5693 18.2547 18.5693H19.1169C19.5039 18.5693 19.8176 18.2555 19.8176 17.8685V16.623C19.9681 16.6079 20.1031 16.5856 20.2167 16.5534L20.2204 16.5523C20.6281 16.4341 20.9822 16.2126 21.2467 15.8761C21.5276 15.5215 21.6468 15.0974 21.6468 14.6537C21.6468 14.2634 21.559 13.8859 21.3513 13.5525C21.1502 13.2244 20.8643 12.9782 20.5078 12.8308C20.1522 12.6809 19.6759 12.6381 19.1693 12.6381H18.2547C17.8677 12.6381 17.554 12.9518 17.554 13.3388V17.7907L17.6049 17.8685H17.554ZM20.2378 13.4774C20.0202 13.385 19.664 13.3388 19.1693 13.3388H18.2547V17.8685H19.1169V15.9501C19.5562 15.9501 19.859 15.9265 20.0253 15.8793C20.3086 15.7972 20.5324 15.6514 20.6966 15.442C20.8629 15.2326 20.9461 14.9698 20.9461 14.6537C20.9461 14.3683 20.8824 14.124 20.7551 13.9208C20.6299 13.7155 20.4575 13.5677 20.2378 13.4774ZM19.9083 14.2718C19.8834 14.2568 19.8532 14.2437 19.8176 14.2325C19.7122 14.1992 19.5597 14.1825 19.3602 14.1825H19.1169V15.1094H19.391C19.5882 15.1094 19.7304 15.0965 19.8176 15.0708C19.8258 15.0684 19.8334 15.0659 19.8406 15.0632C19.9247 15.0324 19.9904 14.9821 20.0376 14.9123C20.0869 14.8405 20.1115 14.7543 20.1115 14.6537C20.1115 14.4792 20.0438 14.3519 19.9083 14.2718Z" fill="white"/>
<path fill-rule="evenodd" clip-rule="evenodd" d="M12.8733 17.8685C12.8733 17.9829 12.9012 18.0975 12.9576 18.2017C13.08 18.4282 13.3166 18.5693 13.574 18.5693H14.5502C14.787 18.5693 15.0079 18.4496 15.1372 18.2512L15.5905 17.5557L16.0494 18.2536C16.179 18.4506 16.3991 18.5693 16.6349 18.5693H17.6049C17.8623 18.5693 18.099 18.4282 18.2214 18.2017C18.2777 18.0975 18.3057 17.9829 18.3056 17.8685H18.2547V17.6061C18.2377 17.5641 18.2165 17.5234 18.1911 17.4847L16.9125 15.532L18.1012 13.7237C18.2427 13.5084 18.2546 13.2329 18.1324 13.0061C18.0101 12.7794 17.7732 12.6381 17.5156 12.6381H16.5456C16.3102 12.6381 16.0906 12.7562 15.9609 12.9527L15.5908 13.5132L15.2259 12.9553C15.0965 12.7574 14.876 12.6381 14.6395 12.6381H13.6695C13.4121 12.6381 13.1755 12.7791 13.0531 13.0055C12.9967 13.1098 12.9687 13.2244 12.9688 13.3388H13.1583V13.8373L14.2669 15.5312L13.1583 17.2243V17.8685H12.8733ZM15.1045 15.5313L13.574 17.8685H14.5502L15.5879 16.2765L16.6349 17.8685H17.6049L16.0745 15.5313L17.5156 13.3388H16.5456L15.5879 14.7892L14.6395 13.3388H13.6695L15.1045 15.5313Z" fill="white"/>
<path fill-rule="evenodd" clip-rule="evenodd" d="M10.6858 13.3388V17.8685H13.1586V17.0217H11.5419V15.83H13.1586V15.0017H11.5419V14.1825H13.1586V13.3388H10.6858ZM13.7272 14.5921C13.8103 14.4769 13.8593 14.3354 13.8593 14.1825V13.6284L13.6697 13.3388H13.8593C13.8593 12.9518 13.5456 12.6381 13.1586 12.6381H10.6858C10.2988 12.6381 9.98511 12.9518 9.98511 13.3388V17.8685C9.98511 18.2555 10.2988 18.5693 10.6858 18.5693H13.1586C13.5456 18.5693 13.8593 18.2555 13.8593 17.8685H13.5743L13.8593 17.4333V17.0217C13.8593 16.7701 13.7267 16.5494 13.5275 16.4259C13.7267 16.3023 13.8593 16.0816 13.8593 15.83V15.0017C13.8593 14.8488 13.8103 14.7073 13.7272 14.5921Z" fill="white"/>
<path fill-rule="evenodd" clip-rule="evenodd" d="M29.9333 5.63078C29.9333 5.24378 30.2471 4.93005 30.6341 4.93005H31.4593C31.6962 4.93005 31.917 5.04971 32.0464 5.24813L32.7017 6.25346V5.63078C32.7017 5.24378 33.0154 4.93005 33.4024 4.93005H34.2647C34.6517 4.93005 34.9654 5.24378 34.9654 5.63078V10.1605C34.9654 10.5475 34.6517 10.8613 34.2647 10.8613H33.4363C33.1996 10.8613 32.9789 10.7418 32.8495 10.5436L32.197 9.54411V10.1605C32.197 10.5475 31.8833 10.8613 31.4963 10.8613H30.6341C30.2471 10.8613 29.9333 10.5475 29.9333 10.1605H29.9597L29.9333 10.0921V5.63078ZM31.4963 7.18894L33.4363 10.1605H34.2647V5.63078H33.4024V8.61161L31.4593 5.63078H30.6341V10.1605H31.4963V7.18894Z" fill="white"/>
<path fill-rule="evenodd" clip-rule="evenodd" d="M26.6884 5.37876C26.7926 5.10839 27.0525 4.93005 27.3422 4.93005H28.2168C28.5067 4.93005 28.7667 5.10858 28.8708 5.37915L30.6137 9.9089C30.6215 9.92911 30.6283 9.94956 30.6341 9.97018V10.1605H30.6604C30.6604 10.3002 30.6187 10.4388 30.5374 10.5572C30.4067 10.7475 30.1906 10.8613 29.9597 10.8613H29.0636C28.7725 10.8613 28.5118 10.6813 28.4085 10.4092L28.2259 9.92822H27.338L27.1438 10.4186C27.038 10.6858 26.7797 10.8613 26.4923 10.8613H25.5962C25.3653 10.8613 25.1492 10.7475 25.0185 10.557C24.8878 10.3666 24.8593 10.124 24.9424 9.90851L25.1065 9.4827C25.1331 9.45781 25.1598 9.43227 25.1867 9.40609L25.1506 9.36846L26.6884 5.37876ZM26.8619 9.22749H28.7095L29.0636 10.1605H29.9597L28.2168 5.63078H27.3422L25.5962 10.1605H26.4923L26.8619 9.22749ZM28.3861 8.38682H27.1821L27.7857 6.83174L28.3861 8.38682Z" fill="white"/>
<path fill-rule="evenodd" clip-rule="evenodd" d="M25.7365 5.97171C25.9795 6.25449 25.9585 6.67799 25.6888 6.93535L25.0852 7.51119C24.9504 7.63975 24.7701 7.70938 24.5839 7.7047C24.3977 7.70002 24.221 7.62142 24.0929 7.48625C23.7912 7.1679 23.505 7.05518 23.2158 7.05518C22.9613 7.05518 22.7756 7.13421 22.6141 7.29425C22.4557 7.45305 22.3768 7.63671 22.3768 7.89106C22.3768 8.08791 22.4186 8.23499 22.4842 8.35174C22.5505 8.4698 22.6413 8.56145 22.7708 8.63343C22.8998 8.70509 23.0483 8.74541 23.2312 8.74541C23.3922 8.74541 23.5218 8.71641 23.63 8.6687C23.7328 8.62127 23.8922 8.51296 24.1081 8.29885C24.2414 8.16658 24.4223 8.09339 24.6102 8.09572C24.798 8.09804 24.977 8.17568 25.1071 8.31122L25.6922 8.92094C25.8222 9.05649 25.8871 9.23089 25.8873 9.40515L25.7053 9.87719C25.6959 9.88759 25.6861 9.89777 25.6759 9.90771C25.3045 10.2699 24.9177 10.5582 24.5136 10.7309L24.5098 10.7326C24.112 10.8999 23.6773 10.9752 23.2188 10.9752C22.3527 10.9752 21.5912 10.6947 20.995 10.104L20.9927 10.1018C20.3997 9.50868 20.1162 8.75083 20.1162 7.88798C20.1162 7.32736 20.2436 6.80234 20.5154 6.33285L20.5169 6.3302C20.7895 5.8641 21.1758 5.49625 21.656 5.22629L21.6574 5.2255C22.1443 4.95331 22.6726 4.81613 23.2312 4.81613C23.7069 4.81613 24.1654 4.91746 24.6002 5.11664C25.0401 5.31719 25.4206 5.60393 25.7365 5.97171ZM24.3089 5.75397C23.9641 5.5959 23.6048 5.51686 23.2312 5.51686C22.7918 5.51686 22.3813 5.62361 21.9994 5.83711C21.6196 6.05062 21.3271 6.33289 21.1218 6.68394C20.9186 7.03499 20.8169 7.43633 20.8169 7.88798C20.8169 8.58597 21.0407 9.15873 21.4882 9.60627C21.9378 10.0517 22.5147 10.2745 23.2188 10.2745C23.6007 10.2745 23.9404 10.2119 24.2381 10.0866C24.371 10.0298 24.5075 9.95318 24.6478 9.85669C24.8013 9.75104 24.9593 9.6216 25.1217 9.46838C25.1432 9.44804 25.1649 9.42728 25.1866 9.40611L24.6015 8.79639C24.5662 8.83135 24.5314 8.86478 24.497 8.89669C24.2888 9.08957 24.0958 9.22653 23.9179 9.30757C23.7105 9.39995 23.4816 9.44614 23.2312 9.44614C22.9376 9.44614 22.6707 9.37942 22.4305 9.24598C22.1903 9.11254 22.0046 8.9288 21.8732 8.69477C21.7418 8.46074 21.6761 8.19283 21.6761 7.89106C21.6761 7.45789 21.8239 7.0935 22.1195 6.79788C22.4172 6.50226 22.7826 6.35445 23.2158 6.35445C23.7236 6.35445 24.1813 6.56653 24.5886 6.99071C24.5929 6.99518 24.5972 6.99968 24.6015 7.0042L25.205 6.42835C25.1431 6.35626 25.0782 6.28825 25.0104 6.22432C24.9071 6.127 24.797 6.03914 24.6801 5.96073C24.5632 5.88237 24.4395 5.81345 24.3089 5.75397Z" fill="white"/>
<path fill-rule="evenodd" clip-rule="evenodd" d="M18.5117 5.63078C18.5117 5.24378 18.8254 4.93005 19.2124 4.93005H20.0685C20.4555 4.93005 20.7692 5.24378 20.7692 5.63078V10.1605C20.7692 10.5475 20.4555 10.8613 20.0685 10.8613H19.2124C18.8254 10.8613 18.5117 10.5475 18.5117 10.1605H18.5781L18.5117 10.0358V5.63078ZM19.2124 5.63078V10.1605H20.0685V5.63078H19.2124Z" fill="white"/>
<path fill-rule="evenodd" clip-rule="evenodd" d="M14.9734 5.63078C14.9734 5.24378 15.2871 4.93005 15.6741 4.93005H16.5887C17.0968 4.93005 17.5764 4.97098 17.9286 5.12022C18.2836 5.26788 18.5647 5.51613 18.766 5.83885C18.9752 6.17421 19.0662 6.55253 19.0662 6.94567C19.0662 7.35888 18.9649 7.7585 18.7203 8.10106C18.6378 8.2168 18.5436 8.31915 18.4399 8.40929L19.1966 9.83137C19.2021 9.84176 19.2073 9.85226 19.2123 9.86284V10.1605H19.2787C19.2787 10.2856 19.2452 10.4105 19.1787 10.5213C19.052 10.7322 18.824 10.8613 18.578 10.8613H17.6357C17.4192 10.8613 17.2175 10.7615 17.086 10.5952C16.9577 10.7573 16.7591 10.8613 16.5363 10.8613H15.6741C15.2871 10.8613 14.9734 10.5475 14.9734 10.1605V5.63078ZM16.5363 8.24209H16.6164L17.6357 10.1605H18.578L17.5063 8.14663C17.6724 8.08731 17.8142 8.01189 17.9316 7.92036C18.0174 7.85349 18.0901 7.77802 18.1499 7.69396C18.2936 7.49278 18.3655 7.24335 18.3655 6.94567C18.3655 6.66237 18.3008 6.41705 18.1715 6.2097C18.0422 6.00236 17.8707 5.85455 17.6572 5.76627C17.4458 5.67595 17.0896 5.63078 16.5887 5.63078H15.6741V10.1605H16.5363V8.24209ZM17.2477 6.5238C17.2443 6.5225 17.2407 6.52122 17.2371 6.51997C17.1488 6.48968 16.9943 6.47453 16.7735 6.47453H16.5363V7.40142H16.8073C16.9876 7.40142 17.1309 7.38599 17.2371 7.35513C17.2929 7.3389 17.3386 7.31841 17.3739 7.29364C17.4786 7.22179 17.531 7.10272 17.531 6.93644C17.531 6.8379 17.5053 6.7527 17.454 6.68085C17.4027 6.60694 17.3339 6.55459 17.2477 6.5238Z" fill="white"/>
<path fill-rule="evenodd" clip-rule="evenodd" d="M11.6355 5.63078C11.6355 5.24378 11.9492 4.93005 12.3362 4.93005H14.809C15.196 4.93005 15.5097 5.24378 15.5097 5.63078V6.47453C15.5097 6.62743 15.4607 6.76889 15.3776 6.88409C15.4607 6.99928 15.5097 7.14074 15.5097 7.29364V8.12199C15.5097 8.37362 15.3771 8.59427 15.1779 8.71785C15.3771 8.84143 15.5097 9.06208 15.5097 9.31371V10.1605C15.5097 10.5475 15.196 10.8613 14.809 10.8613H12.3362C11.9492 10.8613 11.6355 10.5475 11.6355 10.1605H11.6403L11.6355 10.1321V5.63078ZM13.1923 9.31371V8.12199H14.809V7.29364H13.1923V6.47453H14.809V5.63078H12.3362V10.1605H14.809V9.31371H13.1923Z" fill="white"/>
<path fill-rule="evenodd" clip-rule="evenodd" d="M6.40152 5.51155C6.45954 5.17553 6.75103 4.93005 7.09202 4.93005H7.93577C8.23784 4.93005 8.50591 5.12363 8.60093 5.41036L8.98761 6.57723L9.38096 5.40745C9.47687 5.1222 9.74421 4.93005 10.0451 4.93005H10.8766C11.2186 4.93005 11.5107 5.177 11.5675 5.51429L12.3312 10.044C12.3332 10.0556 12.3348 10.0672 12.3362 10.0787V10.1605H12.341C12.341 10.3249 12.2831 10.4855 12.1754 10.613C12.0422 10.7704 11.8465 10.8613 11.6403 10.8613H10.8088C10.4672 10.8613 10.1753 10.6149 10.118 10.278L10.098 10.1602L10.0225 10.3843C9.92646 10.6693 9.65922 10.8613 9.35844 10.8613H8.59784C8.29606 10.8613 8.02817 10.6681 7.93292 10.3817L7.8609 10.1652L7.84097 10.2802C7.78277 10.616 7.49137 10.8613 7.15053 10.8613H6.30986C6.10317 10.8613 5.90702 10.77 5.77388 10.6119C5.66668 10.4846 5.60913 10.3244 5.60913 10.1605H5.98345L5.71792 9.47045L6.40152 5.51155ZM7.64631 7.2998L8.59784 10.1605H9.35844L10.3223 7.2998L10.8088 10.1605H11.6403L10.8766 5.63078H10.0451L8.98276 8.79022L7.93577 5.63078H7.09202L6.30986 10.1605H7.15053L7.64631 7.2998Z" fill="white"/>
<path fill-rule="evenodd" clip-rule="evenodd" d="M2.71233 5.37876C2.81654 5.10839 3.07641 4.93005 3.36617 4.93005H4.24071C4.53062 4.93005 4.79059 5.10858 4.8947 5.37915L6.44151 9.39921L6.31005 10.1605H6.68437C6.68436 10.3002 6.64258 10.4388 6.56128 10.5572C6.43058 10.7475 6.21452 10.8613 5.98363 10.8613H5.08754C4.79646 10.8613 4.53569 10.6813 4.43241 10.4092L4.24986 9.92822H3.36195L3.16776 10.4186C3.06193 10.6858 2.80367 10.8613 2.51626 10.8613H1.62017C1.38921 10.8613 1.17309 10.7475 1.0424 10.557C0.91172 10.3666 0.883262 10.124 0.966327 9.90851L2.71233 5.37876ZM2.88579 9.22749H4.73341L5.08754 10.1605H5.98363L4.24071 5.63078H3.36617L1.62017 10.1605H2.51626L2.88579 9.22749ZM4.41008 8.38682H3.20604L3.8096 6.83174L4.41008 8.38682Z" fill="white"/>
</svg>
